# xmcd
#
# Track frame offsets:
#	183
#	19720
#	43083
#	64293
#	76413
#	93933
#	110090
#	130298
#	150488
#
# Disc length: 2247 seconds
#
# Revision: 0
# Processed by: cddbd v1.5.2PL0 Copyright (c) Steve Scherf et al.
# Submitted via: audiograbber 1.83.01
#
DISCID=7008c509
DTITLE=Pat Benatar - Seven The Hard Way
DYEAR=1985
DGENRE=Rock
TTITLE0=Sex As A Weapon
TTITLE1=Le Bel Age
TTITLE2=Walking In The Underground
TTITLE3=Big Life
TTITLE4=Red Vision
TTITLE5=7 Rooms Of Gloom
TTITLE6=Run Between The Raindrops
TTITLE7=Invincible (Theme from "The Legend Of Billie Jean")
TTITLE8=The Art Of Letting Go
EXTD=
EXTT0=
EXTT1=
EXTT2=
EXTT3=
EXTT4=
EXTT5=
EXTT6=
EXTT7=
EXTT8=
PLAYORDER=
